# xmcd
#
# Track frame offsets: 
#        150
#        15563
#        36651
#        50916
#        63681
#        83616
#        95775
#        115900
#        132629
#        145156
#        177831
#        191787
#        219831
#        233811
#        247104
#        261822
#        273942
#
# Disc length: 3850 seconds
#
# Revision: 1
# Processed by: cddbd v1.5.1PL0 Copyright (c) Steve Scherf et al.
# Submitted via: ExactAudioCopy v0.95a5
#
DISCID=060f0811
DTITLE=Various Artist - Simply The Best Blues [Disc 2]
DYEAR=2003
DGENRE=Blues
TTITLE0=Georgia Satellites - Keep Your Hands To Yourself
TTITLE1=Stevie Ray Vaughan - Couldn't Stand The Weather
TTITLE2=Buddy Guy and Junior Wells - A Poor Man's Plea
TTITLE3=Lightnin' Hopkins - Baby Please Don't Go
TTITLE4=ZZ Top - It's Only Love
TTITLE5=Muddy Waters - The Same Thing
TTITLE6=Dr. John - Basin Street Blues
TTITLE7=Tony Joe White - Polk Salad Annie
TTITLE8=Albert King - Born Under A Bad Sign
TTITLE9=Cold Chisel - Geogia
TTITLE10=T-Bone Walker - Stormy Monday
TTITLE11=John Campell - When The Levee Breaks
TTITLE12=Howlin' Wolf - Smokestack Lightin'
TTITLE13=John Mayall - Sitting In The Rain
TTITLE14=Johnnie Taylor - Blues In The Night
TTITLE15=John Hammond - Shake For Me
TTITLE16=Paul Butterfield Blues Band, The - Walkin' Blues
EXTD=YEAR: 2003
EXTT0=
EXTT1=
EXTT2=
EXTT3=
EXTT4=
EXTT5=
EXTT6=
EXTT7=
EXTT8=
EXTT9=
EXTT10=
EXTT11=
EXTT12=
EXTT13=
EXTT14=
EXTT15=
EXTT16=
PLAYORDER=
